<svg width="38" height="39" viewBox="0 0 38 39" fill="none" xmlns="http://www.w3.org/2000/svg">
<path d="M11.4585 29.2298L11.9817 29.4893C14.1615 30.7866 16.6029 31.392 19.0443 31.392C26.7174 31.392 32.9953 25.165 32.9953 17.5541C32.9953 13.9217 31.513 10.3758 28.8972 7.78117C26.2814 5.18658 22.7937 3.71631 19.0443 3.71631C11.3713 3.71631 5.09339 9.94334 5.18058 17.6406C5.18058 20.2352 5.96533 22.7433 7.27323 24.9055L7.622 25.4244L6.22691 30.5271L11.4585 29.2298Z" fill="#25D366"/>
<path d="M30.3787 6.39708C27.4142 3.37005 23.3161 1.72681 19.1308 1.72681C10.2371 1.72681 3.08719 8.90518 3.17439 17.6403C3.17439 20.4079 3.95913 23.089 5.26703 25.5106L3 33.7268L11.4578 31.5646C13.812 32.8619 16.4278 33.4673 19.0436 33.4673C27.8501 33.4673 35 26.289 35 17.5538C35 13.316 33.3433 9.33762 30.3787 6.39708ZM19.1308 30.7863C16.7766 30.7863 14.4223 30.1809 12.4169 28.9701L11.8937 28.7106L6.83651 30.0079L8.14441 25.0782L7.79564 24.5592C3.95913 18.4187 5.79019 10.289 12.0681 6.48356C18.346 2.67816 26.455 4.49437 30.2916 10.7214C34.1281 16.9484 32.297 24.9917 26.0191 28.7971C24.0136 30.0944 21.5722 30.7863 19.1308 30.7863ZM26.8038 21.1863L25.8447 20.7538C25.8447 20.7538 24.4496 20.1484 23.5777 19.716C23.4905 19.716 23.4033 19.6295 23.3161 19.6295C23.0545 19.6295 22.8801 19.716 22.7057 19.8025C22.7057 19.8025 22.6185 19.889 21.3978 21.2728C21.3106 21.4457 21.1362 21.5322 20.9619 21.5322H20.8747C20.7875 21.5322 20.6131 21.4457 20.5259 21.3592L20.0899 21.1863C19.1308 20.7538 18.2589 20.2349 17.5613 19.543C17.3869 19.3701 17.1253 19.1971 16.951 19.0241C16.3406 18.4187 15.7302 17.7268 15.2943 16.9484L15.2071 16.7755C15.1199 16.689 15.1199 16.6025 15.0327 16.4295C15.0327 16.2565 15.0327 16.0836 15.1199 15.9971C15.1199 15.9971 15.4687 15.5646 15.7302 15.3052C15.9046 15.1322 15.9918 14.8728 16.1662 14.6998C16.3406 14.4403 16.4278 14.0944 16.3406 13.8349C16.2534 13.4025 15.2071 11.0673 14.9455 10.5484C14.7711 10.289 14.5967 10.2025 14.3351 10.116H13.376C13.2016 10.116 13.0272 10.2025 12.8529 10.2025L12.7657 10.289C12.5913 10.3755 12.4169 10.5484 12.2425 10.6349C12.0681 10.8079 11.9809 10.9809 11.8065 11.1538C11.1962 11.9322 10.8474 12.8836 10.8474 13.8349C10.8474 14.5268 11.0218 15.2187 11.2834 15.8241L11.3706 16.0836C12.1553 17.7268 13.2016 19.1971 14.5967 20.4944L14.9455 20.8403C15.2071 21.0998 15.4687 21.2728 15.6431 21.5322C17.4741 23.089 19.5668 24.2133 21.921 24.8187C22.1826 24.9052 22.5313 24.9052 22.7929 24.9917H23.6649C24.1008 24.9917 24.624 24.8187 24.9728 24.6457C25.2343 24.4728 25.4087 24.4728 25.5831 24.2998L25.7575 24.1268C25.9319 23.9538 26.1063 23.8673 26.2807 23.6944C26.455 23.5214 26.6294 23.3484 26.7166 23.1755C26.891 22.8295 26.9782 22.3971 27.0654 21.9646V21.3592C27.0654 21.3592 26.9782 21.2728 26.8038 21.1863Z" fill="white"/>
</svg>
